<mxfile host="app.diagrams.net" modified="2022-05-03T07:02:55.019Z" agent="5.0 (Macintosh; Intel Mac OS X 10_15_7) AppleWebKit/537.36 (KHTML, like Gecko) Chrome/100.0.4896.127 Safari/537.36" etag="ZK6U5phGaEd59DrrfIJZ" version="17.5.0" type="github">
  <diagram id="vHRTCP14G90EMY67-tGp" name="Page-1">
    <mxGraphModel dx="2075" dy="752" grid="1" gridSize="10" guides="1" tooltips="1" connect="1" arrows="1" fold="1" page="1" pageScale="1" pageWidth="827" pageHeight="1169" math="0" shadow="0">
      <root>
        <mxCell id="0" />
        <mxCell id="1" parent="0" />
        <mxCell id="dKlZ2UJzl9QVduXIM5Df-31" value="" style="group" vertex="1" connectable="0" parent="1">
          <mxGeometry x="-70" y="71" width="424" height="409" as="geometry" />
        </mxCell>
        <mxCell id="dKlZ2UJzl9QVduXIM5Df-2" value="实体ID" style="rounded=0;whiteSpace=wrap;html=1;" vertex="1" parent="dKlZ2UJzl9QVduXIM5Df-31">
          <mxGeometry y="209" width="120" height="40" as="geometry" />
        </mxCell>
        <mxCell id="dKlZ2UJzl9QVduXIM5Df-3" value="" style="shape=curlyBracket;whiteSpace=wrap;html=1;rounded=1;" vertex="1" parent="dKlZ2UJzl9QVduXIM5Df-31">
          <mxGeometry x="117" y="49" width="60" height="360" as="geometry" />
        </mxCell>
        <mxCell id="dKlZ2UJzl9QVduXIM5Df-4" value="slot0" style="rounded=0;whiteSpace=wrap;html=1;" vertex="1" parent="dKlZ2UJzl9QVduXIM5Df-31">
          <mxGeometry x="187" y="49" width="80" height="20" as="geometry" />
        </mxCell>
        <mxCell id="dKlZ2UJzl9QVduXIM5Df-5" value="&lt;span&gt;slot1&lt;/span&gt;" style="rounded=0;whiteSpace=wrap;html=1;" vertex="1" parent="dKlZ2UJzl9QVduXIM5Df-31">
          <mxGeometry x="187" y="89" width="80" height="20" as="geometry" />
        </mxCell>
        <mxCell id="dKlZ2UJzl9QVduXIM5Df-6" value="&lt;span&gt;slot2&lt;/span&gt;" style="rounded=0;whiteSpace=wrap;html=1;" vertex="1" parent="dKlZ2UJzl9QVduXIM5Df-31">
          <mxGeometry x="187" y="129" width="80" height="20" as="geometry" />
        </mxCell>
        <mxCell id="dKlZ2UJzl9QVduXIM5Df-7" value="&lt;span&gt;slot3&lt;/span&gt;" style="rounded=0;whiteSpace=wrap;html=1;" vertex="1" parent="dKlZ2UJzl9QVduXIM5Df-31">
          <mxGeometry x="187" y="169" width="80" height="20" as="geometry" />
        </mxCell>
        <mxCell id="dKlZ2UJzl9QVduXIM5Df-8" value="&lt;span&gt;slot4&lt;/span&gt;" style="rounded=0;whiteSpace=wrap;html=1;" vertex="1" parent="dKlZ2UJzl9QVduXIM5Df-31">
          <mxGeometry x="187" y="209" width="80" height="20" as="geometry" />
        </mxCell>
        <mxCell id="dKlZ2UJzl9QVduXIM5Df-9" value="...." style="rounded=0;whiteSpace=wrap;html=1;" vertex="1" parent="dKlZ2UJzl9QVduXIM5Df-31">
          <mxGeometry x="344" y="49" width="80" height="20" as="geometry" />
        </mxCell>
        <mxCell id="dKlZ2UJzl9QVduXIM5Df-10" value="" style="edgeStyle=orthogonalEdgeStyle;rounded=0;orthogonalLoop=1;jettySize=auto;html=1;" edge="1" parent="dKlZ2UJzl9QVduXIM5Df-31" source="dKlZ2UJzl9QVduXIM5Df-4" target="dKlZ2UJzl9QVduXIM5Df-9">
          <mxGeometry relative="1" as="geometry" />
        </mxCell>
        <mxCell id="dKlZ2UJzl9QVduXIM5Df-13" value="...." style="rounded=0;whiteSpace=wrap;html=1;" vertex="1" parent="dKlZ2UJzl9QVduXIM5Df-31">
          <mxGeometry x="344" y="89" width="80" height="20" as="geometry" />
        </mxCell>
        <mxCell id="dKlZ2UJzl9QVduXIM5Df-18" value="" style="edgeStyle=orthogonalEdgeStyle;rounded=0;orthogonalLoop=1;jettySize=auto;html=1;entryX=0;entryY=0.5;entryDx=0;entryDy=0;" edge="1" parent="dKlZ2UJzl9QVduXIM5Df-31" source="dKlZ2UJzl9QVduXIM5Df-5" target="dKlZ2UJzl9QVduXIM5Df-13">
          <mxGeometry relative="1" as="geometry" />
        </mxCell>
        <mxCell id="dKlZ2UJzl9QVduXIM5Df-14" value="...." style="rounded=0;whiteSpace=wrap;html=1;" vertex="1" parent="dKlZ2UJzl9QVduXIM5Df-31">
          <mxGeometry x="344" y="129" width="80" height="20" as="geometry" />
        </mxCell>
        <mxCell id="dKlZ2UJzl9QVduXIM5Df-19" value="" style="edgeStyle=orthogonalEdgeStyle;rounded=0;orthogonalLoop=1;jettySize=auto;html=1;entryX=0;entryY=0.5;entryDx=0;entryDy=0;" edge="1" parent="dKlZ2UJzl9QVduXIM5Df-31" source="dKlZ2UJzl9QVduXIM5Df-6" target="dKlZ2UJzl9QVduXIM5Df-14">
          <mxGeometry relative="1" as="geometry" />
        </mxCell>
        <mxCell id="dKlZ2UJzl9QVduXIM5Df-15" value="...." style="rounded=0;whiteSpace=wrap;html=1;" vertex="1" parent="dKlZ2UJzl9QVduXIM5Df-31">
          <mxGeometry x="344" y="169" width="80" height="20" as="geometry" />
        </mxCell>
        <mxCell id="dKlZ2UJzl9QVduXIM5Df-20" value="" style="edgeStyle=orthogonalEdgeStyle;rounded=0;orthogonalLoop=1;jettySize=auto;html=1;entryX=0;entryY=0.5;entryDx=0;entryDy=0;" edge="1" parent="dKlZ2UJzl9QVduXIM5Df-31" source="dKlZ2UJzl9QVduXIM5Df-7" target="dKlZ2UJzl9QVduXIM5Df-15">
          <mxGeometry relative="1" as="geometry" />
        </mxCell>
        <mxCell id="dKlZ2UJzl9QVduXIM5Df-16" value="...." style="rounded=0;whiteSpace=wrap;html=1;" vertex="1" parent="dKlZ2UJzl9QVduXIM5Df-31">
          <mxGeometry x="344" y="209" width="80" height="20" as="geometry" />
        </mxCell>
        <mxCell id="dKlZ2UJzl9QVduXIM5Df-21" value="" style="edgeStyle=orthogonalEdgeStyle;rounded=0;orthogonalLoop=1;jettySize=auto;html=1;" edge="1" parent="dKlZ2UJzl9QVduXIM5Df-31" source="dKlZ2UJzl9QVduXIM5Df-8" target="dKlZ2UJzl9QVduXIM5Df-16">
          <mxGeometry relative="1" as="geometry" />
        </mxCell>
        <mxCell id="dKlZ2UJzl9QVduXIM5Df-22" value="用户&lt;br&gt;实体ID" style="text;html=1;strokeColor=none;fillColor=none;align=center;verticalAlign=middle;whiteSpace=wrap;rounded=0;fontStyle=1" vertex="1" parent="dKlZ2UJzl9QVduXIM5Df-31">
          <mxGeometry x="30" width="60" height="30" as="geometry" />
        </mxCell>
        <mxCell id="dKlZ2UJzl9QVduXIM5Df-23" value="画像特征" style="text;html=1;strokeColor=none;fillColor=none;align=center;verticalAlign=middle;whiteSpace=wrap;rounded=0;fontStyle=1" vertex="1" parent="dKlZ2UJzl9QVduXIM5Df-31">
          <mxGeometry x="197" width="60" height="30" as="geometry" />
        </mxCell>
        <mxCell id="dKlZ2UJzl9QVduXIM5Df-25" value="特征值" style="text;html=1;strokeColor=none;fillColor=none;align=center;verticalAlign=middle;whiteSpace=wrap;rounded=0;fontStyle=1" vertex="1" parent="dKlZ2UJzl9QVduXIM5Df-31">
          <mxGeometry x="354" width="60" height="30" as="geometry" />
        </mxCell>
        <mxCell id="dKlZ2UJzl9QVduXIM5Df-26" value="&lt;b&gt;slot-based&lt;br&gt;encoding&lt;/b&gt;" style="text;html=1;strokeColor=none;fillColor=none;align=center;verticalAlign=middle;whiteSpace=wrap;rounded=0;fontColor=#FF3333;" vertex="1" parent="dKlZ2UJzl9QVduXIM5Df-31">
          <mxGeometry x="184" y="254" width="90" height="60" as="geometry" />
        </mxCell>
        <mxCell id="dKlZ2UJzl9QVduXIM5Df-27" value="&lt;b&gt;zstd&lt;br&gt;compress&lt;br&gt;&lt;/b&gt;" style="text;html=1;strokeColor=none;fillColor=none;align=center;verticalAlign=middle;whiteSpace=wrap;rounded=0;fontColor=#FF3333;" vertex="1" parent="dKlZ2UJzl9QVduXIM5Df-31">
          <mxGeometry x="334" y="334" width="90" height="50" as="geometry" />
        </mxCell>
        <mxCell id="dKlZ2UJzl9QVduXIM5Df-28" value="&lt;b&gt;dictionary&lt;br&gt;encoding&lt;br&gt;&lt;/b&gt;" style="text;html=1;strokeColor=none;fillColor=none;align=center;verticalAlign=middle;whiteSpace=wrap;rounded=0;fontColor=#FF3333;" vertex="1" parent="dKlZ2UJzl9QVduXIM5Df-31">
          <mxGeometry x="334" y="259" width="90" height="50" as="geometry" />
        </mxCell>
        <mxCell id="dKlZ2UJzl9QVduXIM5Df-29" value="&lt;b&gt;+&lt;br&gt;&lt;/b&gt;" style="text;html=1;strokeColor=none;fillColor=none;align=center;verticalAlign=middle;whiteSpace=wrap;rounded=0;fontColor=#FF3333;" vertex="1" parent="dKlZ2UJzl9QVduXIM5Df-31">
          <mxGeometry x="334" y="295" width="90" height="50" as="geometry" />
        </mxCell>
        <mxCell id="dKlZ2UJzl9QVduXIM5Df-32" value="" style="shape=flexArrow;endArrow=classic;html=1;rounded=0;fontColor=#FF3333;" edge="1" parent="1">
          <mxGeometry width="50" height="50" relative="1" as="geometry">
            <mxPoint x="410" y="290" as="sourcePoint" />
            <mxPoint x="500" y="290" as="targetPoint" />
          </mxGeometry>
        </mxCell>
        <mxCell id="dKlZ2UJzl9QVduXIM5Df-33" value="&lt;font color=&quot;#000000&quot;&gt;usage metrics&lt;/font&gt;" style="text;html=1;strokeColor=none;fillColor=none;align=center;verticalAlign=middle;whiteSpace=wrap;rounded=0;fontColor=#FF3333;" vertex="1" parent="1">
          <mxGeometry x="420" y="240" width="60" height="30" as="geometry" />
        </mxCell>
        <mxCell id="dKlZ2UJzl9QVduXIM5Df-36" value="" style="edgeStyle=orthogonalEdgeStyle;rounded=0;orthogonalLoop=1;jettySize=auto;html=1;fontColor=#FF3333;" edge="1" parent="1" source="dKlZ2UJzl9QVduXIM5Df-34" target="dKlZ2UJzl9QVduXIM5Df-35">
          <mxGeometry relative="1" as="geometry" />
        </mxCell>
        <mxCell id="dKlZ2UJzl9QVduXIM5Df-34" value="&lt;font color=&quot;#000000&quot;&gt;statistic&lt;br&gt;store&lt;/font&gt;" style="shape=cylinder3;whiteSpace=wrap;html=1;boundedLbl=1;backgroundOutline=1;size=15;fontColor=#FF3333;" vertex="1" parent="1">
          <mxGeometry x="530" y="250" width="60" height="80" as="geometry" />
        </mxCell>
        <mxCell id="dKlZ2UJzl9QVduXIM5Df-35" value="" style="rounded=0;whiteSpace=wrap;html=1;fillColor=#eeeeee;strokeColor=#36393d;" vertex="1" parent="1">
          <mxGeometry x="510" y="510" width="100" height="140" as="geometry" />
        </mxCell>
        <mxCell id="dKlZ2UJzl9QVduXIM5Df-37" value="调用量&amp;gt;0" style="rounded=0;whiteSpace=wrap;html=1;fontColor=#000000;" vertex="1" parent="1">
          <mxGeometry x="520" y="520" width="80" height="30" as="geometry" />
        </mxCell>
        <mxCell id="dKlZ2UJzl9QVduXIM5Df-38" value="人群使用&amp;gt;0" style="rounded=0;whiteSpace=wrap;html=1;fontColor=#000000;" vertex="1" parent="1">
          <mxGeometry x="520" y="567" width="80" height="30" as="geometry" />
        </mxCell>
        <mxCell id="dKlZ2UJzl9QVduXIM5Df-39" value="指标使用&amp;gt;0" style="rounded=0;whiteSpace=wrap;html=1;fontColor=#000000;" vertex="1" parent="1">
          <mxGeometry x="520" y="613" width="80" height="30" as="geometry" />
        </mxCell>
        <mxCell id="dKlZ2UJzl9QVduXIM5Df-40" value="&lt;font color=&quot;#ff3333&quot;&gt;&lt;b&gt;规则模块&lt;/b&gt;&lt;/font&gt;" style="text;html=1;strokeColor=none;fillColor=none;align=center;verticalAlign=middle;whiteSpace=wrap;rounded=0;fontColor=#000000;fontSize=14;" vertex="1" parent="1">
          <mxGeometry x="470" y="520" width="30" height="80" as="geometry" />
        </mxCell>
        <mxCell id="dKlZ2UJzl9QVduXIM5Df-41" value="&lt;font color=&quot;#000000&quot;&gt;Writer&lt;/font&gt;" style="rounded=0;whiteSpace=wrap;html=1;fontSize=14;fillColor=#f9f7ed;strokeColor=#36393d;" vertex="1" parent="1">
          <mxGeometry x="100" y="585" width="120" height="60" as="geometry" />
        </mxCell>
        <mxCell id="dKlZ2UJzl9QVduXIM5Df-42" value="" style="shape=flexArrow;endArrow=classic;html=1;rounded=0;fontSize=14;fontColor=#FF3333;" edge="1" parent="1">
          <mxGeometry width="50" height="50" relative="1" as="geometry">
            <mxPoint x="160" y="570" as="sourcePoint" />
            <mxPoint x="160" y="510" as="targetPoint" />
          </mxGeometry>
        </mxCell>
        <mxCell id="dKlZ2UJzl9QVduXIM5Df-43" value="&lt;font color=&quot;#000000&quot;&gt;上线/下线&lt;/font&gt;" style="text;html=1;align=center;verticalAlign=middle;resizable=0;points=[];autosize=1;strokeColor=none;fillColor=none;fontSize=14;fontColor=#FF3333;" vertex="1" parent="1">
          <mxGeometry x="170" y="540" width="80" height="20" as="geometry" />
        </mxCell>
        <mxCell id="dKlZ2UJzl9QVduXIM5Df-44" value="" style="endArrow=classic;html=1;rounded=0;fontSize=14;fontColor=#000000;exitX=0;exitY=0.75;exitDx=0;exitDy=0;entryX=1;entryY=0.5;entryDx=0;entryDy=0;" edge="1" parent="1" source="dKlZ2UJzl9QVduXIM5Df-35" target="dKlZ2UJzl9QVduXIM5Df-41">
          <mxGeometry width="50" height="50" relative="1" as="geometry">
            <mxPoint x="300" y="640" as="sourcePoint" />
            <mxPoint x="350" y="590" as="targetPoint" />
          </mxGeometry>
        </mxCell>
        <mxCell id="dKlZ2UJzl9QVduXIM5Df-45" value="统计" style="edgeLabel;html=1;align=center;verticalAlign=middle;resizable=0;points=[];fontSize=14;fontColor=#000000;" vertex="1" connectable="0" parent="dKlZ2UJzl9QVduXIM5Df-44">
          <mxGeometry x="-0.0276" relative="1" as="geometry">
            <mxPoint as="offset" />
          </mxGeometry>
        </mxCell>
      </root>
    </mxGraphModel>
  </diagram>
</mxfile>
